<svg width="78" height="98" viewBox="0 0 78 98" fill="none" xmlns="http://www.w3.org/2000/svg">
<rect y="12" width="78" height="86" fill="#E5E0FF"/>
<path d="M10.142 27.2H33.674C39.298 27.2 44.256 28.2853 48.548 30.456C52.8893 32.5773 56.244 35.5867 58.612 39.484C61.0293 43.3813 62.238 47.92 62.238 53.1C62.238 58.28 61.0293 62.8187 58.612 66.716C56.244 70.6133 52.8893 73.6473 48.548 75.818C44.256 77.9393 39.298 79 33.674 79H10.142V27.2ZM33.082 69.158C38.262 69.158 42.3813 67.7273 45.44 64.866C48.548 61.9553 50.102 58.0333 50.102 53.1C50.102 48.1667 48.548 44.2693 45.44 41.408C42.3813 38.4973 38.262 37.042 33.082 37.042H22.13V69.158H33.082Z" fill="#6F60C6"/>
<path d="M68.6 75.181V86.381H66.472L60.888 79.581V86.381H58.328V75.181H60.472L66.04 81.981V75.181H68.6Z" fill="#6F60C6"/>
</svg>
