<svg width="106" height="106" viewBox="0 0 106 106" fill="none" xmlns="http://www.w3.org/2000/svg">
<rect width="106" height="106" rx="53" fill="#E5E0FF" fill-opacity="0.01"/>
<path d="M35.842 27.2H55.452C60.8293 27.2 65.5653 28.31 69.66 30.53C73.804 32.75 77.0107 35.8333 79.28 39.78C81.5987 43.7267 82.758 48.1667 82.758 53.1C82.758 58.0333 81.5987 62.4733 79.28 66.42C77.0107 70.3667 73.804 73.45 69.66 75.67C65.5653 77.89 60.8293 79 55.452 79H35.842V27.2ZM55.304 77.594C60.484 77.594 65.0227 76.558 68.92 74.486C72.8667 72.3647 75.9007 69.454 78.022 65.754C80.1927 62.0047 81.278 57.7867 81.278 53.1C81.278 48.4133 80.1927 44.22 78.022 40.52C75.9007 36.7707 72.8667 33.86 68.92 31.788C65.0227 29.6667 60.484 28.606 55.304 28.606H37.322V77.594H55.304Z" fill="#FFB0CE"/>
</svg>
