<svg width="582" height="454" viewBox="0 0 582 454" fill="none" xmlns="http://www.w3.org/2000/svg">
<path d="M471.313 7.79213C530.298 28.1672 572.534 98.0246 580.544 169.337C588.554 240.65 563.067 314.146 515.005 354.896C466.943 394.919 397.035 400.74 335.865 416.022C274.696 432.031 222.265 456.044 163.28 453.861C103.566 452.406 37.2991 424.754 12.54 375.271C-12.2192 326.517 4.52968 256.659 21.2785 191.168C38.0274 125.677 55.5044 65.279 95.556 41.2655C135.608 16.5243 198.962 29.6226 268.142 21.6181C337.322 14.3413 412.328 -13.3106 471.313 7.79213Z" fill="url(#paint0_linear)"/>
<defs>
<linearGradient id="paint0_linear" x1="0" y1="454" x2="440.348" y2="-110.499" gradientUnits="userSpaceOnUse">
<stop stop-color="#E5E0FF"/>
<stop offset="1" stop-color="#6F60C6"/>
</linearGradient>
</defs>
</svg>
